<?xml version="1.0" encoding="UTF-8"?>
<svg id="Layer_1" data-name="Layer 1" xmlns="http://www.w3.org/2000/svg" viewBox="0 0 288.35 184.26">
  <defs>
    <style>
      .cls-1 {
        fill: #fff;
      }
    </style>
  </defs>
  <path class="cls-1" d="M283.65,143.08c-15.45-15.29-34.96-25.03-56.42-28.17-2.74-.4-5.29,1.51-5.68,4.24-.4,2.73,1.5,5.29,4.23,5.69,17.55,2.57,33.75,10.09,47,21.81-16.3,14.39-37.23,22.5-59.23,22.9-20.91,.39-41.1-6.24-57.49-18.71,49.92-6.42,88.9-49.13,89.17-100.47,0-1.33-.53-2.63-1.46-3.57-1.01-1.01-2.36-1.57-3.66-1.47-21.26,.13-41.56,6.78-58.72,19.23-2.24,1.63-2.73,4.77-1.11,7.01,.79,1.08,1.95,1.79,3.27,2.01,1.32,.21,2.65-.11,3.73-.89,14.02-10.17,30.48-16.08,47.74-17.14-1.42,22.72-11.24,43.95-27.83,60.03-14.36,13.92-32.47,22.65-51.91,25.25,30.79-39.78,28.33-97.35-7.58-133.65-.92-.93-2.21-1.46-3.57-1.46s-2.65,.53-3.56,1.46c-15.29,15.45-25.03,34.96-28.17,56.42-.4,2.73,1.5,5.29,4.25,5.69,2.74,.39,5.28-1.52,5.68-4.24,2.57-17.55,10.09-33.75,21.81-47,14.95,16.96,22.92,38.8,22.49,61.81-.37,19.91-7.02,38.82-18.9,54.37-6.36-49.51-48.55-88.33-99.25-88.85-1.37,0-2.64,.5-3.6,1.45-.94,.94-1.49,2.23-1.49,3.56v9.31c0,.16,0,.33,.03,.51,1.74,17.06,7.86,33.51,17.7,47.57,1.58,2.26,4.71,2.81,6.98,1.23,1.1-.77,1.83-1.92,2.06-3.24,.23-1.32-.06-2.65-.83-3.75-8.81-12.59-14.31-27.32-15.91-42.59v-3.84c22.46,1.5,43.46,11.34,59.35,27.87,13.73,14.29,22.35,32.26,24.93,51.51-39.49-30.42-96.73-27.42-132.68,7.8-.96,.95-1.5,2.21-1.5,3.55,0,1.33,.53,2.64,1.47,3.57l6.56,6.56c.12,.13,.25,.24,.4,.36,17.93,14.62,40.6,22.67,63.81,22.67h.19c18.14-.01,35.94-4.89,51.46-14.1,1.15-.68,1.97-1.77,2.3-3.07,.33-1.3,.14-2.65-.54-3.8-.68-1.15-1.77-1.97-3.07-2.3-1.3-.33-2.65-.14-3.8,.55-13.96,8.29-29.98,12.68-46.33,12.69h-.26c-20.81-.01-41.13-7.2-57.23-20.25l-2.72-2.72c16.95-14.85,38.71-22.8,61.61-22.43,23.71,.38,45.95,9.68,62.64,26.17l.02,.02h0l.03,.03c19.15,18.93,44.63,29.35,71.76,29.35h.01c27.16,0,52.67-10.44,71.82-29.38,.95-.94,1.49-2.23,1.49-3.56s-.54-2.63-1.49-3.56Z"/>
</svg>